<svg width="22" height="20" viewBox="0 0 22 20" fill="none" xmlns="http://www.w3.org/2000/svg">
<path d="M10 18C9.90388 17.9985 9.80972 17.9721 9.72641 17.9234C9.62264 17.8756 7.28302 16.5259 4.90566 14.3625C1.65094 11.3855 1.46172e-06 8.42769 1.46172e-06 5.556C-0.00085418 4.36786 0.37396 3.21079 1.06935 2.25486C1.76474 1.29892 2.74402 0.594559 3.86324 0.245296C4.98247 -0.103966 6.1826 -0.0797015 7.28722 0.314524C8.39185 0.70875 9.3427 1.45214 10 2.43542C10.6573 1.45214 11.6082 0.70875 12.7128 0.314524C13.8174 -0.0797015 15.0175 -0.103966 16.1368 0.245296C17.256 0.594559 18.2353 1.29892 18.9307 2.25486C19.626 3.21079 20.0009 4.36786 20 5.556C20 8.42769 18.3491 11.3855 15.0943 14.3625C12.717 16.5259 10.3774 17.8756 10.2736 17.9234C10.1903 17.9721 10.0961 17.9985 10 18ZM5.4717 1.15273C4.32076 1.15273 3.21696 1.61665 2.40312 2.44242C1.58929 3.26819 1.13208 4.38818 1.13208 5.556C1.13208 11.0409 8.4717 15.8271 10 16.7556C11.5283 15.8271 18.8679 11.0409 18.8679 5.556C18.8701 4.53642 18.5235 3.54767 17.8873 2.75848C17.2511 1.96929 16.3647 1.42857 15.3794 1.22862C14.3941 1.02866 13.3709 1.18186 12.4845 1.66205C11.598 2.14225 10.9033 2.91969 10.5189 3.8617C10.4783 3.96783 10.407 4.05903 10.3144 4.12334C10.2218 4.18765 10.1122 4.22206 10 4.22206C9.88779 4.22206 9.77821 4.18765 9.68561 4.12334C9.59302 4.05903 9.52174 3.96783 9.48113 3.8617C9.15126 3.05881 8.59442 2.37305 7.88086 1.89093C7.16729 1.40882 6.32898 1.15195 5.4717 1.15273Z" fill="white"/>
</svg>
