<svg width="20" height="20" viewBox="0 0 20 20" fill="none" xmlns="http://www.w3.org/2000/svg">
<path d="M19 10.0015C19.0005 8.50466 18.6275 7.03131 17.9148 5.71492C17.2021 4.39853 16.1723 3.28069 14.9185 2.46265C13.6647 1.64461 12.2267 1.1522 10.7346 1.03003C9.24248 0.907851 7.74346 1.15977 6.37329 1.76296C5.00313 2.36615 3.8051 3.30157 2.88771 4.48448C1.97032 5.6674 1.36255 7.06044 1.11945 8.53746C0.876348 10.0145 1.00559 11.5288 1.49548 12.9433C1.98536 14.3577 2.82041 15.6277 3.925 16.6381L4.0375 16.7419C5.68282 18.1969 7.8035 19 10 19C12.1965 19 14.3172 18.1969 15.9625 16.7419L16.075 16.6381C16.9976 15.7963 17.7343 14.7712 18.238 13.6284C18.7416 12.4857 19.0012 11.2504 19 10.0015ZM2.38462 10.0015C2.38416 8.76832 2.68329 7.55344 3.25629 6.46138C3.82929 5.36932 4.659 4.43276 5.67408 3.73223C6.68916 3.0317 7.85923 2.58817 9.08367 2.43978C10.3081 2.29139 11.5503 2.44259 12.7033 2.88036C13.8564 3.31813 14.8859 4.02938 15.7032 4.95295C16.5206 5.87652 17.1013 6.98476 17.3955 8.18237C17.6898 9.37999 17.6886 10.6311 17.3923 11.8282C17.0959 13.0253 16.5132 14.1325 15.6942 15.0546C14.9223 13.9353 13.8349 13.0709 12.5702 12.5714C13.2485 12.0372 13.7435 11.3049 13.9862 10.4765C14.229 9.648 14.2076 8.76447 13.9249 7.94875C13.6422 7.13304 13.1123 6.42567 12.4088 5.92504C11.7054 5.42441 10.8634 5.15538 10 5.15538C9.13657 5.15538 8.29459 5.42441 7.59117 5.92504C6.88774 6.42567 6.35783 7.13304 6.07512 7.94875C5.79241 8.76447 5.77096 9.648 6.01375 10.4765C6.25654 11.3049 6.75151 12.0372 7.42981 12.5714C6.16514 13.0709 5.07768 13.9353 4.30577 15.0546C3.06599 13.6636 2.38207 11.8647 2.38462 10.0015ZM7.23077 9.30933C7.23077 8.76171 7.39318 8.22639 7.69747 7.77106C8.00176 7.31572 8.43425 6.96084 8.94026 6.75127C9.44627 6.54171 10.0031 6.48687 10.5402 6.59371C11.0774 6.70055 11.5709 6.96425 11.9581 7.35148C12.3454 7.7387 12.6092 8.23206 12.716 8.76916C12.8229 9.30626 12.768 9.86298 12.5584 10.3689C12.3488 10.8748 11.9939 11.3073 11.5385 11.6115C11.0831 11.9158 10.5477 12.0782 10 12.0782C9.26625 12.0759 8.56322 11.7834 8.04438 11.2647C7.52554 10.7459 7.23305 10.043 7.23077 9.30933ZM5.33558 16.0151C5.83657 15.2327 6.52638 14.5888 7.34149 14.1429C8.15661 13.697 9.07084 13.4632 10 13.4632C10.9292 13.4632 11.8434 13.697 12.6585 14.1429C13.4736 14.5888 14.1634 15.2327 14.6644 16.0151C13.3308 17.0521 11.6895 17.6151 10 17.6151C8.31052 17.6151 6.66923 17.0521 5.33558 16.0151Z" fill="black" stroke="black"/>
</svg>
