<svg width="26" height="13" viewBox="0 0 26 13" fill="none" xmlns="http://www.w3.org/2000/svg">
<path d="M25.4131 8.47502C25.5093 8.64812 25.5345 8.8519 25.4831 9.04321C25.4318 9.23452 25.3081 9.39835 25.1381 9.50002C25.025 9.56803 24.895 9.60269 24.7631 9.60002C24.6313 9.6001 24.5019 9.56549 24.3878 9.49965C24.2737 9.43382 24.1789 9.3391 24.1131 9.22502L21.6756 5.01252C20.225 6.02271 18.609 6.77149 16.9006 7.22502L17.6631 11.575C17.6957 11.7705 17.6496 11.971 17.5348 12.1326C17.42 12.2943 17.2459 12.4039 17.0506 12.4375H16.9256C16.748 12.4396 16.5756 12.3775 16.4401 12.2627C16.3047 12.1479 16.2151 11.988 16.1881 11.8125L15.4256 7.52501C14.5457 7.67225 13.6552 7.7475 12.7631 7.75001C11.8671 7.7516 10.9725 7.68053 10.0881 7.53752L9.32557 11.825C9.29609 11.9994 9.2059 12.1578 9.07095 12.2722C8.936 12.3866 8.76496 12.4495 8.58807 12.45H8.46307C8.26772 12.4164 8.09363 12.3068 7.97886 12.1451C7.86408 11.9835 7.81796 11.783 7.85057 11.5875L8.61307 7.23751C6.90751 6.77598 5.29283 6.02782 3.83807 5.02501L1.40057 9.25002C1.3347 9.3641 1.23995 9.45882 1.12584 9.52465C1.01174 9.59048 0.882303 9.6251 0.750569 9.62502C0.619256 9.62297 0.490466 9.58862 0.375569 9.52501C0.290169 9.47581 0.215305 9.41025 0.155258 9.33209C0.0952109 9.25394 0.0511579 9.16471 0.0256178 9.06952C7.7704e-05 8.97432 -0.00644845 8.87502 0.00641224 8.77731C0.0192729 8.67959 0.0512684 8.58536 0.100569 8.50002L2.63807 4.08751C1.73934 3.33008 0.914783 2.48879 0.175569 1.57501C0.0512488 1.4192 -0.00608231 1.22038 0.0161876 1.0223C0.0384576 0.82421 0.138504 0.643085 0.294319 0.518765C0.450134 0.394445 0.648953 0.337113 0.847038 0.359383C1.04512 0.381653 1.22625 0.4817 1.35057 0.637515C2.14095 1.62549 3.04275 2.5189 4.03807 3.30001L4.08807 3.32501C6.56743 5.24986 9.62439 6.2806 12.7631 6.25001C15.9018 6.2806 18.9587 5.24986 21.4381 3.32501L21.4756 3.30001C22.4775 2.52223 23.3839 1.62851 24.1756 0.637515C24.2999 0.4817 24.481 0.381653 24.6791 0.359383C24.8772 0.337113 25.076 0.394445 25.2318 0.518765C25.3876 0.643085 25.4877 0.82421 25.51 1.0223C25.5322 1.22038 25.4749 1.4192 25.3506 1.57501C24.6073 2.49306 23.7786 3.33852 22.8756 4.10002L25.4131 8.47502Z" fill="black"/>
</svg>
