<svg width="30" height="20" viewBox="0 0 30 20" fill="none" xmlns="http://www.w3.org/2000/svg">
<path d="M29.4412 9.45C29.3912 9.35 28.3537 7.0375 26.0287 4.725C23.7037 2.4125 20.1787 0 14.7537 0C9.32874 0 5.62874 2.5625 3.47874 4.725C1.32874 6.8875 0.116237 9.35 0.0662367 9.45C0.0226044 9.54399 0 9.64637 0 9.75C0 9.85363 0.0226044 9.95601 0.0662367 10.05C0.116237 10.15 1.15374 12.4625 3.47874 14.775C5.80374 17.0875 9.32874 19.5 14.7537 19.5C20.1787 19.5 23.8787 16.9375 26.0287 14.775C28.1787 12.6125 29.3912 10.15 29.4412 10.05C29.4849 9.95601 29.5075 9.85363 29.5075 9.75C29.5075 9.64637 29.4849 9.54399 29.4412 9.45ZM14.7537 18C10.8287 18 7.40374 16.575 4.57874 13.7625C3.38752 12.5822 2.38044 11.2296 1.59124 9.75C2.38044 8.27039 3.38752 6.91779 4.57874 5.7375C7.40374 2.925 10.8287 1.5 14.7537 1.5C18.6787 1.5 22.1037 2.925 24.9287 5.7375C26.12 6.91779 27.127 8.27039 27.9162 9.75C27.1162 11.275 23.1287 18 14.7537 18ZM14.7537 4C13.6165 4 12.5048 4.33723 11.5592 4.96905C10.6136 5.60087 9.87663 6.49889 9.44143 7.54957C9.00623 8.60025 8.89236 9.75638 9.11422 10.8718C9.33609 11.9872 9.88372 13.0117 10.6879 13.8159C11.492 14.62 12.5166 15.1677 13.632 15.3895C14.7474 15.6114 15.9035 15.4975 16.9542 15.0623C18.0048 14.6271 18.9029 13.8901 19.5347 12.9445C20.1665 11.9989 20.5037 10.8872 20.5037 9.75C20.5037 8.22501 19.8979 6.76247 18.8196 5.68414C17.7413 4.6058 16.2787 4 14.7537 4ZM14.7537 14C13.9132 14 13.0915 13.7507 12.3926 13.2837C11.6937 12.8168 11.1489 12.153 10.8272 11.3764C10.5056 10.5998 10.4214 9.74529 10.5854 8.92087C10.7494 8.09645 11.1542 7.33917 11.7485 6.7448C12.3429 6.15042 13.1002 5.74565 13.9246 5.58166C14.749 5.41768 15.6036 5.50184 16.3801 5.82351C17.1567 6.14518 17.8205 6.68992 18.2875 7.38883C18.7545 8.08774 19.0037 8.90943 19.0037 9.75C19.0004 10.8762 18.5516 11.9552 17.7553 12.7516C16.959 13.5479 15.8799 13.9967 14.7537 14Z" fill="black"/>
</svg>
